<mxfile host="Electron" agent="Mozilla/5.0 (Windows NT 10.0; Win64; x64) AppleWebKit/537.36 (KHTML, like Gecko) draw.io/25.0.2 Chrome/128.0.6613.186 Electron/32.2.5 Safari/537.36" version="25.0.2">
  <diagram name="Page-1" id="KL53qAabpxqSajSM73HF">
    <mxGraphModel dx="1418" dy="1420" grid="1" gridSize="10" guides="1" tooltips="1" connect="1" arrows="1" fold="1" page="1" pageScale="1" pageWidth="850" pageHeight="600" math="1" shadow="0">
      <root>
        <mxCell id="0" />
        <mxCell id="1" parent="0" />
        <mxCell id="Ya9fY4rdkiM0QhiMj1Qv-2" value="&lt;font style=&quot;font-size: 20px;&quot;&gt;&lt;b style=&quot;&quot;&gt;V&lt;/b&gt;&lt;/font&gt;" style="ellipse;whiteSpace=wrap;html=1;aspect=fixed;fillColor=#dae8fc;strokeColor=#6c8ebf;strokeWidth=2;shadow=1;" vertex="1" parent="1">
          <mxGeometry x="120" y="-520" width="60" height="60" as="geometry" />
        </mxCell>
        <mxCell id="Ya9fY4rdkiM0QhiMj1Qv-3" value="&lt;font style=&quot;font-size: 20px;&quot;&gt;&lt;b&gt;T1&lt;/b&gt;&lt;/font&gt;" style="ellipse;whiteSpace=wrap;html=1;aspect=fixed;fillColor=#dae8fc;strokeColor=#6c8ebf;strokeWidth=2;shadow=1;" vertex="1" parent="1">
          <mxGeometry x="40" y="-400" width="60" height="60" as="geometry" />
        </mxCell>
        <mxCell id="Ya9fY4rdkiM0QhiMj1Qv-4" value="&lt;font style=&quot;font-size: 20px;&quot;&gt;&lt;b&gt;T2&lt;/b&gt;&lt;/font&gt;" style="ellipse;whiteSpace=wrap;html=1;aspect=fixed;fillColor=#dae8fc;strokeColor=#6c8ebf;strokeWidth=2;shadow=1;" vertex="1" parent="1">
          <mxGeometry x="200" y="-400" width="60" height="60" as="geometry" />
        </mxCell>
        <mxCell id="Ya9fY4rdkiM0QhiMj1Qv-5" value="&lt;b&gt;&lt;font style=&quot;font-size: 20px;&quot;&gt;V&lt;/font&gt;&lt;/b&gt;" style="ellipse;whiteSpace=wrap;html=1;aspect=fixed;fillColor=#dae8fc;strokeColor=#6c8ebf;strokeWidth=2;shadow=1;" vertex="1" parent="1">
          <mxGeometry x="400" y="-520" width="60" height="60" as="geometry" />
        </mxCell>
        <mxCell id="Ya9fY4rdkiM0QhiMj1Qv-6" value="&lt;b&gt;&lt;font style=&quot;font-size: 20px;&quot;&gt;T1&lt;/font&gt;&lt;/b&gt;" style="ellipse;whiteSpace=wrap;html=1;aspect=fixed;fillColor=#dae8fc;strokeColor=#6c8ebf;strokeWidth=2;shadow=1;" vertex="1" parent="1">
          <mxGeometry x="320" y="-400" width="60" height="60" as="geometry" />
        </mxCell>
        <mxCell id="Ya9fY4rdkiM0QhiMj1Qv-7" value="&lt;b&gt;&lt;font style=&quot;font-size: 20px;&quot;&gt;T2&lt;/font&gt;&lt;/b&gt;" style="ellipse;whiteSpace=wrap;html=1;aspect=fixed;fillColor=#dae8fc;strokeColor=#6c8ebf;strokeWidth=2;shadow=1;" vertex="1" parent="1">
          <mxGeometry x="480" y="-400" width="60" height="60" as="geometry" />
        </mxCell>
        <mxCell id="Ya9fY4rdkiM0QhiMj1Qv-8" value="&lt;b&gt;&lt;font style=&quot;font-size: 20px;&quot;&gt;V&lt;/font&gt;&lt;/b&gt;" style="ellipse;whiteSpace=wrap;html=1;aspect=fixed;fillColor=#dae8fc;strokeColor=#6c8ebf;strokeWidth=2;shadow=1;" vertex="1" parent="1">
          <mxGeometry x="680" y="-520" width="60" height="60" as="geometry" />
        </mxCell>
        <mxCell id="Ya9fY4rdkiM0QhiMj1Qv-9" value="&lt;b&gt;&lt;font style=&quot;font-size: 20px;&quot;&gt;T1&lt;/font&gt;&lt;/b&gt;" style="ellipse;whiteSpace=wrap;html=1;aspect=fixed;fillColor=#dae8fc;strokeColor=#6c8ebf;strokeWidth=2;shadow=1;" vertex="1" parent="1">
          <mxGeometry x="600" y="-400" width="60" height="60" as="geometry" />
        </mxCell>
        <mxCell id="Ya9fY4rdkiM0QhiMj1Qv-10" value="&lt;b&gt;&lt;font style=&quot;font-size: 20px;&quot;&gt;T2&lt;/font&gt;&lt;/b&gt;" style="ellipse;whiteSpace=wrap;html=1;aspect=fixed;fillColor=#dae8fc;strokeColor=#6c8ebf;strokeWidth=2;shadow=1;" vertex="1" parent="1">
          <mxGeometry x="760" y="-400" width="60" height="60" as="geometry" />
        </mxCell>
        <mxCell id="Ya9fY4rdkiM0QhiMj1Qv-11" value="&lt;b&gt;&lt;font style=&quot;font-size: 20px;&quot;&gt;V&lt;/font&gt;&lt;/b&gt;" style="ellipse;whiteSpace=wrap;html=1;aspect=fixed;fillColor=#dae8fc;strokeColor=#6c8ebf;strokeWidth=2;shadow=1;" vertex="1" parent="1">
          <mxGeometry x="240" y="-270" width="60" height="60" as="geometry" />
        </mxCell>
        <mxCell id="Ya9fY4rdkiM0QhiMj1Qv-12" value="&lt;b&gt;&lt;font style=&quot;font-size: 20px;&quot;&gt;T1&lt;/font&gt;&lt;/b&gt;" style="ellipse;whiteSpace=wrap;html=1;aspect=fixed;fillColor=#dae8fc;strokeColor=#6c8ebf;strokeWidth=2;shadow=1;" vertex="1" parent="1">
          <mxGeometry x="160" y="-150" width="60" height="60" as="geometry" />
        </mxCell>
        <mxCell id="Ya9fY4rdkiM0QhiMj1Qv-13" value="&lt;b&gt;&lt;font style=&quot;font-size: 20px;&quot;&gt;T2&lt;/font&gt;&lt;/b&gt;" style="ellipse;whiteSpace=wrap;html=1;aspect=fixed;fillColor=#dae8fc;strokeColor=#6c8ebf;strokeWidth=2;shadow=1;" vertex="1" parent="1">
          <mxGeometry x="320" y="-150" width="60" height="60" as="geometry" />
        </mxCell>
        <mxCell id="Ya9fY4rdkiM0QhiMj1Qv-18" value="" style="endArrow=classic;html=1;rounded=0;exitX=0;exitY=1;exitDx=0;exitDy=0;entryX=0.717;entryY=0.017;entryDx=0;entryDy=0;entryPerimeter=0;strokeWidth=5;fillColor=#dae8fc;strokeColor=#6c8ebf;shadow=1;" edge="1" parent="1" source="Ya9fY4rdkiM0QhiMj1Qv-2" target="Ya9fY4rdkiM0QhiMj1Qv-3">
          <mxGeometry width="50" height="50" relative="1" as="geometry">
            <mxPoint x="400" y="-350" as="sourcePoint" />
            <mxPoint x="450" y="-400" as="targetPoint" />
          </mxGeometry>
        </mxCell>
        <mxCell id="Ya9fY4rdkiM0QhiMj1Qv-19" value="" style="endArrow=classic;html=1;rounded=0;exitX=1;exitY=0.5;exitDx=0;exitDy=0;entryX=0;entryY=0.5;entryDx=0;entryDy=0;strokeWidth=5;fillColor=#dae8fc;strokeColor=#6c8ebf;shadow=1;" edge="1" parent="1" source="Ya9fY4rdkiM0QhiMj1Qv-6" target="Ya9fY4rdkiM0QhiMj1Qv-7">
          <mxGeometry width="50" height="50" relative="1" as="geometry">
            <mxPoint x="400" y="-350" as="sourcePoint" />
            <mxPoint x="450" y="-330" as="targetPoint" />
          </mxGeometry>
        </mxCell>
        <mxCell id="Ya9fY4rdkiM0QhiMj1Qv-20" value="" style="endArrow=classic;html=1;rounded=0;entryX=0.75;entryY=0.067;entryDx=0;entryDy=0;exitX=0;exitY=1;exitDx=0;exitDy=0;entryPerimeter=0;strokeWidth=5;fillColor=#dae8fc;strokeColor=#6c8ebf;shadow=1;" edge="1" parent="1" source="Ya9fY4rdkiM0QhiMj1Qv-5" target="Ya9fY4rdkiM0QhiMj1Qv-6">
          <mxGeometry width="50" height="50" relative="1" as="geometry">
            <mxPoint x="400" y="-350" as="sourcePoint" />
            <mxPoint x="450" y="-400" as="targetPoint" />
          </mxGeometry>
        </mxCell>
        <mxCell id="Ya9fY4rdkiM0QhiMj1Qv-21" value="" style="endArrow=classic;html=1;rounded=0;entryX=1;entryY=0.5;entryDx=0;entryDy=0;exitX=0;exitY=0.5;exitDx=0;exitDy=0;strokeWidth=5;fillColor=#dae8fc;strokeColor=#6c8ebf;shadow=1;" edge="1" parent="1" source="Ya9fY4rdkiM0QhiMj1Qv-10" target="Ya9fY4rdkiM0QhiMj1Qv-9">
          <mxGeometry width="50" height="50" relative="1" as="geometry">
            <mxPoint x="400" y="-350" as="sourcePoint" />
            <mxPoint x="450" y="-400" as="targetPoint" />
          </mxGeometry>
        </mxCell>
        <mxCell id="Ya9fY4rdkiM0QhiMj1Qv-22" value="" style="endArrow=classic;html=1;rounded=0;exitX=0;exitY=1;exitDx=0;exitDy=0;entryX=0.733;entryY=0.05;entryDx=0;entryDy=0;entryPerimeter=0;strokeWidth=5;fillColor=#dae8fc;strokeColor=#6c8ebf;shadow=1;" edge="1" parent="1" source="Ya9fY4rdkiM0QhiMj1Qv-8" target="Ya9fY4rdkiM0QhiMj1Qv-9">
          <mxGeometry width="50" height="50" relative="1" as="geometry">
            <mxPoint x="692" y="-460" as="sourcePoint" />
            <mxPoint x="650" y="-400" as="targetPoint" />
          </mxGeometry>
        </mxCell>
        <mxCell id="Ya9fY4rdkiM0QhiMj1Qv-23" value="" style="endArrow=classic;html=1;rounded=0;exitX=0;exitY=1;exitDx=0;exitDy=0;entryX=0.717;entryY=0.033;entryDx=0;entryDy=0;entryPerimeter=0;strokeWidth=5;fillColor=#dae8fc;strokeColor=#6c8ebf;shadow=1;" edge="1" parent="1" source="Ya9fY4rdkiM0QhiMj1Qv-11" target="Ya9fY4rdkiM0QhiMj1Qv-12">
          <mxGeometry width="50" height="50" relative="1" as="geometry">
            <mxPoint x="206" y="-230" as="sourcePoint" />
            <mxPoint x="160" y="-160" as="targetPoint" />
          </mxGeometry>
        </mxCell>
        <mxCell id="Ya9fY4rdkiM0QhiMj1Qv-24" value="" style="endArrow=classic;html=1;rounded=0;exitX=1;exitY=1;exitDx=0;exitDy=0;entryX=0.35;entryY=0.05;entryDx=0;entryDy=0;entryPerimeter=0;strokeWidth=5;fillColor=#dae8fc;strokeColor=#6c8ebf;shadow=1;" edge="1" parent="1" source="Ya9fY4rdkiM0QhiMj1Qv-11" target="Ya9fY4rdkiM0QhiMj1Qv-13">
          <mxGeometry width="50" height="50" relative="1" as="geometry">
            <mxPoint x="380" y="-260" as="sourcePoint" />
            <mxPoint x="334" y="-190" as="targetPoint" />
          </mxGeometry>
        </mxCell>
        <mxCell id="Ya9fY4rdkiM0QhiMj1Qv-26" value="&lt;b&gt;&lt;font style=&quot;font-size: 20px;&quot;&gt;V&lt;/font&gt;&lt;/b&gt;" style="ellipse;whiteSpace=wrap;html=1;aspect=fixed;fillColor=#dae8fc;strokeColor=#6c8ebf;strokeWidth=2;shadow=1;" vertex="1" parent="1">
          <mxGeometry x="560" y="-270" width="60" height="60" as="geometry" />
        </mxCell>
        <mxCell id="Ya9fY4rdkiM0QhiMj1Qv-27" value="&lt;b&gt;&lt;font style=&quot;font-size: 20px;&quot;&gt;T1&lt;/font&gt;&lt;/b&gt;" style="ellipse;whiteSpace=wrap;html=1;aspect=fixed;fillColor=#dae8fc;strokeColor=#6c8ebf;strokeWidth=2;shadow=1;" vertex="1" parent="1">
          <mxGeometry x="480" y="-150" width="60" height="60" as="geometry" />
        </mxCell>
        <mxCell id="Ya9fY4rdkiM0QhiMj1Qv-28" value="&lt;b&gt;&lt;font style=&quot;font-size: 20px;&quot;&gt;T2&lt;/font&gt;&lt;/b&gt;" style="ellipse;whiteSpace=wrap;html=1;aspect=fixed;fillColor=#dae8fc;strokeColor=#6c8ebf;strokeWidth=2;shadow=1;" vertex="1" parent="1">
          <mxGeometry x="640" y="-150" width="60" height="60" as="geometry" />
        </mxCell>
        <mxCell id="Ya9fY4rdkiM0QhiMj1Qv-29" value="" style="endArrow=classic;html=1;rounded=0;exitX=0;exitY=1;exitDx=0;exitDy=0;entryX=0.717;entryY=0.033;entryDx=0;entryDy=0;entryPerimeter=0;strokeWidth=5;fillColor=#dae8fc;strokeColor=#6c8ebf;shadow=1;" edge="1" parent="1" source="Ya9fY4rdkiM0QhiMj1Qv-26" target="Ya9fY4rdkiM0QhiMj1Qv-27">
          <mxGeometry width="50" height="50" relative="1" as="geometry">
            <mxPoint x="526" y="-230" as="sourcePoint" />
            <mxPoint x="480" y="-160" as="targetPoint" />
          </mxGeometry>
        </mxCell>
        <mxCell id="Ya9fY4rdkiM0QhiMj1Qv-30" value="" style="endArrow=classic;html=1;rounded=0;exitX=1;exitY=1;exitDx=0;exitDy=0;entryX=0.35;entryY=0.05;entryDx=0;entryDy=0;entryPerimeter=0;strokeWidth=5;fillColor=#dae8fc;strokeColor=#6c8ebf;shadow=1;" edge="1" parent="1" source="Ya9fY4rdkiM0QhiMj1Qv-26" target="Ya9fY4rdkiM0QhiMj1Qv-28">
          <mxGeometry width="50" height="50" relative="1" as="geometry">
            <mxPoint x="700" y="-260" as="sourcePoint" />
            <mxPoint x="654" y="-190" as="targetPoint" />
          </mxGeometry>
        </mxCell>
        <mxCell id="Ya9fY4rdkiM0QhiMj1Qv-31" value="" style="endArrow=classic;startArrow=classic;html=1;rounded=0;exitX=1;exitY=0.5;exitDx=0;exitDy=0;entryX=0;entryY=0.5;entryDx=0;entryDy=0;strokeWidth=5;fillColor=#dae8fc;strokeColor=#6c8ebf;shadow=1;" edge="1" parent="1" source="Ya9fY4rdkiM0QhiMj1Qv-27" target="Ya9fY4rdkiM0QhiMj1Qv-28">
          <mxGeometry width="50" height="50" relative="1" as="geometry">
            <mxPoint x="400" y="-350" as="sourcePoint" />
            <mxPoint x="450" y="-400" as="targetPoint" />
          </mxGeometry>
        </mxCell>
        <mxCell id="Ya9fY4rdkiM0QhiMj1Qv-32" value="&lt;font color=&quot;#ffffff&quot; style=&quot;font-size: 16px;&quot;&gt;&lt;b&gt;M0 Null Model&lt;/b&gt;&lt;/font&gt;" style="text;html=1;align=center;verticalAlign=middle;whiteSpace=wrap;rounded=0;" vertex="1" parent="1">
          <mxGeometry x="80" y="-550" width="140" height="30" as="geometry" />
        </mxCell>
        <mxCell id="Ya9fY4rdkiM0QhiMj1Qv-33" value="&lt;font color=&quot;#ffffff&quot; style=&quot;font-size: 16px;&quot;&gt;&lt;b&gt;M1 Mediation&lt;/b&gt;&lt;/font&gt;" style="text;html=1;align=center;verticalAlign=middle;whiteSpace=wrap;rounded=0;" vertex="1" parent="1">
          <mxGeometry x="360" y="-550" width="140" height="30" as="geometry" />
        </mxCell>
        <mxCell id="Ya9fY4rdkiM0QhiMj1Qv-34" value="&lt;font color=&quot;#ffffff&quot; style=&quot;font-size: 16px;&quot;&gt;&lt;b&gt;M2 V-structure&lt;/b&gt;&lt;/font&gt;" style="text;html=1;align=center;verticalAlign=middle;whiteSpace=wrap;rounded=0;" vertex="1" parent="1">
          <mxGeometry x="640" y="-550" width="140" height="30" as="geometry" />
        </mxCell>
        <mxCell id="Ya9fY4rdkiM0QhiMj1Qv-35" value="&lt;font color=&quot;#ffffff&quot; style=&quot;font-size: 16px;&quot;&gt;&lt;b&gt;M3 Conditional Independence&amp;nbsp;&lt;/b&gt;&lt;/font&gt;" style="text;html=1;align=center;verticalAlign=middle;whiteSpace=wrap;rounded=0;" vertex="1" parent="1">
          <mxGeometry x="200" y="-310" width="140" height="40" as="geometry" />
        </mxCell>
        <mxCell id="Ya9fY4rdkiM0QhiMj1Qv-36" value="&lt;font color=&quot;#ffffff&quot; style=&quot;font-size: 16px;&quot;&gt;&lt;b&gt;M4 Fully Connected&lt;/b&gt;&lt;/font&gt;" style="text;html=1;align=center;verticalAlign=middle;whiteSpace=wrap;rounded=0;" vertex="1" parent="1">
          <mxGeometry x="505" y="-300" width="170" height="30" as="geometry" />
        </mxCell>
      </root>
    </mxGraphModel>
  </diagram>
</mxfile>
